<?xml version="1.0" standalone="no"?>
<!DOCTYPE svg PUBLIC "-//W3C//DTD SVG 20010904//EN"
 "http://www.w3.org/TR/2001/REC-SVG-20010904/DTD/svg10.dtd">
<svg version="1.0" xmlns="http://www.w3.org/2000/svg"
 width="512.000000pt" height="512.000000pt" viewBox="0 0 512.000000 512.000000"
 preserveAspectRatio="xMidYMid meet">
<metadata>
Created by potrace 1.11, written by Peter Selinger 2001-2013
</metadata>
<g transform="translate(0.000000,512.000000) scale(0.100000,-0.100000)"
fill="#000000" stroke="none">
<path d="M610 5109 c-19 -5 -48 -11 -65 -14 -55 -11 -167 -80 -231 -142 -35
-34 -64 -66 -64 -71 0 -4 -9 -18 -20 -30 -12 -12 -18 -22 -14 -22 3 0 1 -6 -5
-14 -6 -7 -23 -44 -38 -82 l-26 -69 -2 -2080 c-1 -1720 1 -2090 12 -2140 16
-70 68 -182 96 -207 11 -10 16 -18 11 -18 -8 0 80 -85 118 -115 38 -30 146
-78 201 -90 51 -11 363 -13 1697 -14 1601 -1 1637 0 1705 19 79 22 102 32 165
74 144 95 241 255 256 424 2 23 6 47 9 52 4 6 3 10 -2 10 -7 0 -7 150 0 213 2
15 1 27 -2 27 -7 0 -4 195 3 223 2 9 1 17 -2 17 -7 0 -6 197 1 282 1 21 0 38
-3 38 -5 0 -3 162 3 212 2 16 1 28 -2 28 -7 0 -4 195 3 223 2 9 1 17 -2 17 -7
0 -6 156 1 212 2 16 1 28 -2 28 -7 0 -4 195 3 222 2 10 1 18 -2 18 -7 0 -6
197 1 283 1 20 -1 37 -6 37 -4 0 -5 5 -2 10 4 6 7 197 7 424 l0 413 283 284
c156 156 281 287 279 290 -2 4 2 9 10 12 27 11 83 207 59 207 -5 0 -8 15 -9
34 -1 73 -37 120 -278 362 -128 128 -231 236 -228 239 3 3 -1 5 -9 5 -8 0 -22
8 -30 18 -50 54 -143 91 -218 85 -25 -2 -54 -4 -63 -4 -10 0 -20 -4 -23 -9 -3
-6 -15 -6 -29 0 -13 5 -28 6 -32 2 -5 -4 -6 -3 -2 2 9 11 -23 29 -106 59 l-61
22 -1655 2 c-935 0 -1670 -3 -1690 -8z"/>
</g>
</svg>
